<svg width="1440" height="1024" viewBox="0 0 1440 1024" fill="none" xmlns="http://www.w3.org/2000/svg">
<g id="Desktop - 1">
<g id="plate">
<path id="Vector" d="M990.009 805.703C990.009 818.275 873.603 856.025 730.009 856.025C586.415 856.025 470.009 818.275 470.009 805.703C470.009 793.13 586.415 810.495 730.009 810.495C873.603 810.495 990.009 793.13 990.009 805.703Z" fill="#F7DEE7"/>
<path id="Vector_2" opacity="0.2" d="M990.009 805.703C990.009 818.275 873.603 856.025 730.009 856.025C586.415 856.025 470.009 818.275 470.009 805.703C470.009 793.13 586.415 810.495 730.009 810.495C873.603 810.495 990.009 793.13 990.009 805.703Z" fill="black"/>
<path id="Vector_3" d="M730.009 828.468C873.603 828.468 990.009 818.276 990.009 805.703C990.009 793.13 873.603 782.938 730.009 782.938C586.415 782.938 470.009 793.13 470.009 805.703C470.009 818.276 586.415 828.468 730.009 828.468Z" fill="#F7DEE7"/>
</g>
<path id="cup_shadow" opacity="0.2" d="M728.009 817.982C787.104 817.982 835.009 813.504 835.009 807.982C835.009 802.459 787.104 797.982 728.009 797.982C668.915 797.982 621.009 802.459 621.009 807.982C621.009 813.504 668.915 817.982 728.009 817.982Z" fill="black"/>
<path id="cup" d="M936.389 578.241H819.509V578.982H540.009V619.482C540.009 723.587 624.403 807.982 728.509 807.982H728.509C761.457 807.995 793.831 799.368 822.403 782.961C850.975 766.555 874.745 742.943 891.342 714.482H936.389C954.456 714.482 971.782 707.305 984.557 694.53C997.332 681.755 1004.51 664.428 1004.51 646.361C1004.51 628.295 997.332 610.968 984.557 598.193C971.782 585.418 954.456 578.241 936.389 578.241ZM936.389 693.482H901.922C911.908 670.09 917.041 644.915 917.009 619.482V599.241H936.389C948.886 599.241 960.871 604.206 969.708 613.042C978.545 621.879 983.509 633.864 983.509 646.361C983.509 658.858 978.545 670.844 969.708 679.68C960.871 688.517 948.886 693.482 936.389 693.482V693.482Z" fill="#F7DEE7"/>
<path id="tea" d="M557.509 596.482V619.482C557.509 713.772 634.22 790.482 728.509 790.482C822.799 790.482 899.509 713.772 899.509 619.482V596.482H557.509Z" fill="#73A580"/>
<g id="teabag">
<path id="Vector_4" d="M683.798 759.15L644.65 718.803C640.699 714.732 638.528 709.257 638.613 703.585C638.699 697.912 641.034 692.506 645.106 688.555L704.315 631.104C705.727 629.734 707.392 628.654 709.218 627.925L722.079 622.786C724.853 621.677 727.894 621.418 730.816 622.041C733.737 622.665 736.408 624.142 738.488 626.286L779.369 668.418C781.386 670.497 782.761 673.112 783.33 675.951C783.899 678.791 783.638 681.734 782.579 684.429L778.252 695.431C777.467 697.429 776.263 699.237 774.722 700.732L714.046 759.605C709.975 763.556 704.5 765.728 698.828 765.642C693.155 765.557 687.749 763.221 683.798 759.15Z" fill="#E6E6E6"/>
<path id="Vector_5" d="M763.166 661.524L744.148 641.924L741.208 644.776L760.226 664.377L763.166 661.524Z" fill="#F7DEE7"/>
<path id="Vector_6" d="M754.043 654.183C757.505 645.971 767.821 644.201 775.493 642.573C783.649 640.842 792.939 637.831 796.327 629.349C797.058 627.612 797.341 625.72 797.149 623.846C796.958 621.971 796.298 620.175 795.231 618.623C793.238 615.763 789.881 613.436 786.251 613.761C778.656 614.441 777.303 623.412 780.204 629.073C784.121 636.715 794.18 637.38 801.707 637.569C808.978 637.751 816.782 637.472 823.427 634.187C826.557 632.664 829.173 630.258 830.952 627.266C832.732 624.274 833.597 620.827 833.441 617.349C833.207 610.012 829.97 603.167 828.037 596.194C826.179 589.492 825.595 582.061 830.541 576.488C835.333 571.088 842.887 568.955 849.774 567.865C851.543 567.586 853.323 567.395 855.107 567.252C857.018 567.098 857.035 564.097 855.107 564.252C842.337 565.279 825.602 569.678 823.767 584.759C822.929 591.652 825.534 598.453 827.635 604.888C829.588 610.869 831.873 617.759 829.374 623.929C826.751 630.405 819.958 633.041 813.523 634.029C810.054 634.508 806.551 634.697 803.05 634.596C798.995 634.702 794.941 634.294 790.988 633.384C787.6 632.455 784.335 630.676 782.729 627.426C781.549 625.038 781.171 621.816 782.495 619.403C782.841 618.787 783.309 618.248 783.871 617.818C784.433 617.389 785.077 617.08 785.763 616.908C786.449 616.737 787.162 616.707 787.86 616.822C788.558 616.936 789.225 617.192 789.82 617.573C791.27 618.382 792.453 619.594 793.228 621.062C794.002 622.531 794.335 624.192 794.184 625.845C793.087 634.343 783.371 637.756 776.259 639.341C768.424 641.088 759.585 642.367 753.989 648.778C752.8 650.151 751.841 651.707 751.15 653.386C751.047 653.769 751.099 654.178 751.295 654.523C751.491 654.868 751.816 655.123 752.198 655.231C752.581 655.327 752.987 655.271 753.33 655.076C753.674 654.881 753.929 654.561 754.043 654.183V654.183Z" fill="#F7DEE7"/>
</g>
<path id="bubble1" d="M633.009 641.982C639.084 641.982 644.009 637.057 644.009 630.982C644.009 624.906 639.084 619.982 633.009 619.982C626.934 619.982 622.009 624.906 622.009 630.982C622.009 637.057 626.934 641.982 633.009 641.982Z" fill="#E6E6E6"/>
<path id="bubble3" d="M835.009 682.982C841.084 682.982 846.009 678.057 846.009 671.982C846.009 665.906 841.084 660.982 835.009 660.982C828.934 660.982 824.009 665.906 824.009 671.982C824.009 678.057 828.934 682.982 835.009 682.982Z" fill="#E6E6E6"/>
<path id="bubble2" d="M780.009 737.982C784.428 737.982 788.009 734.4 788.009 729.982C788.009 725.563 784.428 721.982 780.009 721.982C775.591 721.982 772.009 725.563 772.009 729.982C772.009 734.4 775.591 737.982 780.009 737.982Z" fill="#E6E6E6"/>
<path id="leaf1" d="M494.828 802.216C527.496 809.504 563.549 804.119 563.549 804.119C563.549 804.119 546.636 786.919 513.968 779.632C481.3 772.344 445.248 777.728 445.248 777.728C445.248 777.728 462.161 794.928 494.828 802.216Z" fill="#73A580"/>
<path id="leaf2" d="M498.051 814.505C533.617 815.532 563.796 804.069 563.796 804.069C543.854 795.437 522.465 790.636 500.746 789.917C465.18 788.891 435 800.353 435 800.353C454.942 808.986 476.332 813.787 498.051 814.505V814.505Z" fill="#509161"/>
<path id="leaf3" d="M500.577 789.959C525.985 802.768 563.404 804.37 563.404 804.37C563.404 804.37 559.628 785.203 534.22 772.393C508.811 759.583 471.392 757.982 471.392 757.982C471.392 757.982 475.169 777.149 500.577 789.959Z" fill="#509161"/>
<path id="tea_overlay" opacity="0.3" d="M557.009 596.982V619.982C557.009 714.272 633.72 790.982 728.009 790.982C822.299 790.982 899.009 714.272 899.009 619.982V596.982H557.009Z" fill="#F3FF6A"/>
<g id="teabag_label">
<path id="Vector_7" d="M881.394 595.358L864.165 604.049C862.518 604.954 860.579 605.169 858.774 604.646C856.969 604.124 855.444 602.907 854.535 601.262L842.679 577.758C842.396 577.195 842.233 576.579 842.202 575.95L841.976 571.487C841.949 570.487 842.211 569.501 842.73 568.646C843.25 567.792 844.006 567.106 844.906 566.671L862.898 557.595C863.757 557.145 864.726 556.943 865.694 557.014C866.661 557.084 867.59 557.423 868.376 557.994L871.419 560.306C871.969 560.721 872.416 561.257 872.727 561.871L884.876 585.957C885.659 587.666 885.731 589.615 885.079 591.377C884.426 593.14 883.101 594.571 881.394 595.358V595.358Z" fill="#686868"/>
<path id="Vector_8" d="M858.905 562.05L850.535 566.272L851.123 567.439L859.493 563.217L858.905 562.05Z" fill="#F7DEE7"/>
<path id="Vector_9" d="M867.67 566.297L849.103 575.557L851.781 580.926L870.348 571.666L867.67 566.297Z" fill="#73A580"/>
<path id="Vector_10" d="M871.67 573.297L853.103 582.557L855.781 587.926L874.348 578.666L871.67 573.297Z" fill="#73A580"/>
<path id="Vector_11" d="M875.67 581.297L857.103 590.557L859.781 595.926L878.348 586.666L875.67 581.297Z" fill="#73A580"/>
</g>
</g>
</svg>
