<svg width="1" height="1" viewBox="0 0 1 1" fill="none" xmlns="http://www.w3.org/2000/svg">
<g id="Dribbble Shot - 2">
<path id="blob" fill-rule="evenodd" clip-rule="evenodd" d="M0.504853 0.00223943C0.396265 0.0177612 0.36052 0.137673 0.278467 0.201444C0.208576 0.255761 0.108046 0.276462 0.0611763 0.347054C0.00789917 0.427297 -0.00942631 0.521907 0.00471846 0.613745C0.0210399 0.719716 0.054506 0.830427 0.146542 0.901313C0.242591 0.97529 0.376829 1.00629 0.504853 0.998949C0.628137 0.991878 0.738481 0.933893 0.830394 0.862089C0.915165 0.795866 0.994042 0.711253 0.99981 0.612282C1.00517 0.520354 0.895838 0.458642 0.858936 0.37237C0.824535 0.291944 0.855747 0.193913 0.792641 0.127947C0.722262 0.0543782 0.613439 -0.0132821 0.504853 0.00223943Z" fill="#C4C4C4"/>
</g>
</svg>
