<svg width="1" height="1" viewBox="0 0 1 1" fill="none" xmlns="http://www.w3.org/2000/svg">
<g id="Dribbble Shot - 3">
<path id="Vector" fill-rule="evenodd" clip-rule="evenodd" d="M0.452411 4.91599e-05C0.52188 0.00202668 0.574385 0.0631859 0.638324 0.0923248C0.712446 0.126104 0.799208 0.128151 0.859362 0.185508C0.928673 0.251595 1.00435 0.337756 0.999805 0.436992C0.995229 0.536812 0.897124 0.598211 0.836941 0.67462C0.786647 0.738474 0.736119 0.797688 0.674908 0.849482C0.604888 0.908731 0.541668 1.00035 0.452411 0.999999C0.363126 0.999644 0.290427 0.918913 0.230868 0.847715C0.180429 0.78742 0.168353 0.70469 0.141936 0.628857C0.11975 0.565173 0.10616 0.502052 0.0877849 0.436992C0.0616364 0.34441 -0.0310961 0.249775 0.0106398 0.16399C0.0516203 0.0797565 0.176869 0.112685 0.2607 0.0815753C0.326795 0.0570477 0.382482 -0.00194147 0.452411 4.91599e-05Z" fill="#C4C4C4"/>
</g>
</svg>
