<svg width="1" height="1" viewBox="0 0 1 1" fill="none" xmlns="http://www.w3.org/2000/svg">
<g id="Dribbble Shot - 5">
<path id="Vector" fill-rule="evenodd" clip-rule="evenodd" d="M0.544396 0.0909963C0.645403 0.102422 0.754197 0.0403004 0.841825 0.0926059C0.931471 0.146116 0.97372 0.256406 0.994807 0.359848C1.01438 0.455862 0.973711 0.547798 0.954193 0.643824C0.931542 0.755262 0.95936 0.895416 0.871584 0.96609C0.78394 1.03666 0.656212 0.975459 0.544396 0.973776C0.434833 0.972128 0.321369 1.00775 0.224174 0.956348C0.11957 0.901025 0.0243745 0.805129 0.00279873 0.687334C-0.0181373 0.573033 0.0842109 0.478812 0.116263 0.367202C0.149873 0.250165 0.0933151 0.0847467 0.194614 0.0193945C0.297539 -0.0470062 0.423224 0.0772895 0.544396 0.0909963Z" fill="#C4C4C4"/>
</g>
</svg>
